<?xml version="1.0" encoding="utf-8"?>
<!-- Generator: Adobe Illustrator 21.0.2, SVG Export Plug-In . SVG Version: 6.00 Build 0)  -->
<svg version="1.1" id="Layer_1" xmlns="http://www.w3.org/2000/svg" xmlns:xlink="http://www.w3.org/1999/xlink" x="0px" y="0px"
	 viewBox="0 0 500 500" style="enable-background:new 0 0 500 500;" xml:space="preserve">
<style type="text/css">
	.st0{fill:#E3C08A;}
	.st1{fill:#C8A679;}
	.st2{fill:#221F1F;}
	.st3{fill:#C2A077;}
</style>
<g>
	<polygon id="Fill-1" class="st0" points="123,370.9 378.6,370.9 378.6,162.7 123,162.7 	"/>
	<polygon id="Fill-2" class="st1" points="250.8,129.4 139.8,129.1 139.7,129.5 139.5,129.5 123,162.6 378.6,162.6 362.2,129.5 
		361.9,129.5 361.8,129.1 	"/>
	<polygon id="Fill-3" class="st2" points="233,221 268.7,221 268.7,162.7 233,162.7 	"/>
	<polygon id="Fill-4" class="st2" points="263.8,129.3 261.5,129.3 240.2,129.3 237.9,129.3 233,162.6 268.7,162.6 	"/>
	<polygon id="Fill-5" class="st3" points="304.2,360.6 363.7,360.6 363.7,348.9 304.2,348.9 	"/>
	<polygon id="Fill-6" class="st3" points="330.5,308.8 321,299.2 311.3,308.8 314.2,308.8 314.2,345.6 327.5,345.6 327.5,308.8 	"/>
	<polygon id="Fill-7" class="st3" points="356.6,318 349.4,310.7 342.1,318 344.4,318 344.4,345.6 354.4,345.6 354.4,318 	"/>
	<polygon id="Fill-8" class="st3" points="132.1,186.9 172.9,186.9 172.9,179.1 132.1,179.1 	"/>
	<polygon id="Fill-9" class="st3" points="180.1,186.9 211.3,186.9 211.3,179.1 180.1,179.1 	"/>
	<polygon id="Fill-10" class="st3" points="132.1,203.1 154.9,203.1 154.9,195.3 132.1,195.3 	"/>
	<polygon id="Fill-11" class="st3" points="188.5,203.1 211.3,203.1 211.3,195.3 188.5,195.3 	"/>
	<polygon id="Fill-12" class="st3" points="160.3,203.1 183.1,203.1 183.1,195.3 160.3,195.3 	"/>
	<path class="st2" d="M312.4,269.7c-16.7,12.3-40.8,18.8-61.6,18.8c-29.2,0-55.4-10.8-75.3-28.7c-1.6-1.4-0.2-3.3,1.7-2.2
		c21.4,12.5,48,20,75.3,20c18.5,0,38.8-3.8,57.5-11.8C312.8,264.6,315.1,267.7,312.4,269.7"/>
	<path class="st2" d="M319.3,261.8c-2.1-2.7-14.1-1.3-19.5-0.6c-1.6,0.2-1.9-1.2-0.4-2.2c9.5-6.7,25.2-4.8,27-2.5
		c1.8,2.3-0.5,17.9-9.4,25.4c-1.4,1.1-2.7,0.5-2.1-1C316.9,275.8,321.4,264.5,319.3,261.8"/>
</g>
</svg>
