<?xml version="1.0" encoding="utf-8"?>
<!-- Generator: Adobe Illustrator 21.0.2, SVG Export Plug-In . SVG Version: 6.00 Build 0)  -->
<svg version="1.1" id="Layer_1" xmlns="http://www.w3.org/2000/svg" xmlns:xlink="http://www.w3.org/1999/xlink" x="0px" y="0px"
	 viewBox="0 0 500 500" style="enable-background:new 0 0 300 300;" xml:space="preserve">
<style type="text/css">
	.st0{fill:#BCBCBC;}
	.st1{fill:#494949;}
	.st2{fill:#E5E5E5;}
	.st3{fill:#FFFFFF;}
	.st4{fill:#005DAA;}
	.st5{fill:#E31837;}
</style>
<g>
	<g>
		<g>
			<path class="st0" d="M181.8,311.7c-2.2-3.3,0.1-6.3,0.9-7.1l13.9-13.9l-5.3-5.3l-14,14c-3.7,3.8-6.7,11.9,0,18.7l1.1,1.1h133.9
				v-7.5H181.8z"/>
		</g>
	</g>
	<g>
		<g>
			<path class="st0" d="M319.2,315.2c-2.8-5.7-8.6-9.6-15.4-9.6s-12.6,3.9-15.4,9.6c-1.2,2.4,0.6,5.1,3.2,5.1H316
				C318.6,320.4,320.3,317.6,319.2,315.2z"/>
		</g>
	</g>
	<g>
		<g>
			<circle class="st1" cx="303.8" cy="322.8" r="12"/>
		</g>
	</g>
	<g>
		<g>
			<circle class="st0" cx="303.8" cy="322.8" r="6"/>
		</g>
	</g>
	<g>
		<g>
			<path class="st0" d="M227.2,315.2c-2.8-5.7-8.6-9.6-15.4-9.6s-12.6,3.9-15.4,9.6c-1.2,2.4,0.6,5.1,3.2,5.1H224
				C226.7,320.4,228.4,317.6,227.2,315.2z"/>
		</g>
	</g>
	<g>
		<g>
			<circle class="st1" cx="211.9" cy="322.8" r="12"/>
		</g>
	</g>
	<g>
		<g>
			<circle class="st0" cx="211.9" cy="322.8" r="6"/>
		</g>
	</g>
	<g>
		<g>
			<path class="st2" d="M169.7,312c-2.6-3.9,0.1-7.4,1.1-8.4l16.4-16.4L181,281l-16.5,16.5c-4.4,4.5-7.9,14.1,0,22l1.3,1.3h157.8
				V312H169.7z"/>
		</g>
	</g>
	<g>
		<g>
			<path class="st2" d="M338.5,316.2c-3.3-6.7-10.2-11.3-18.1-11.3c-8,0-14.8,4.6-18.1,11.3c-1.4,2.8,0.7,6,3.8,6h28.7
				C337.8,322.2,339.9,318.9,338.5,316.2z"/>
		</g>
	</g>
	<g>
		<g>
			<circle class="st1" cx="320.4" cy="325.1" r="14.1"/>
		</g>
	</g>
	<g>
		<g>
			<circle class="st0" cx="320.4" cy="325.1" r="7.1"/>
		</g>
	</g>
	<g>
		<g>
			<path class="st2" d="M216.4,316.2c-3.3-6.7-10.2-11.3-18.1-11.3c-8,0-14.8,4.6-18.1,11.3c-1.4,2.8,0.7,6,3.8,6h28.7
				C215.7,322.2,217.8,318.9,216.4,316.2z"/>
		</g>
	</g>
	<g>
		<g>
			<circle class="st1" cx="198.3" cy="325.1" r="14.1"/>
		</g>
	</g>
	<g>
		<g>
			<circle class="st0" cx="198.3" cy="325.1" r="7.1"/>
		</g>
	</g>
	<g>
		<g>
			<path class="st0" d="M173.2,186.3h-29.5c-2.8,0-5.1,2.3-5.1,5.1c0,2.8,2.3,5.1,5.1,5.1h29.5c2.8,0,5.1-2.3,5.1-5.1
				C178.3,188.6,176,186.3,173.2,186.3z"/>
		</g>
	</g>
	<g>
		<g>
			<path class="st0" d="M320.4,199.5l-2.7,23.1h-25.2l0.9-23.9h-7.5l-0.9,23.9h-22.7v-23.7h-7.5v23.7h-26.3l-2.3-23.3h-7.5l2.3,23.3
				h-30.4l-6-23h-7.5l22,84.6h7.5l-7-26.9h24.8l2.6,26.9h7.5l-2.6-26.9h23v26.9h7.5v-26.9h21.4l-1,26.9h7.5l1-26.9h22.5l-3.1,26.9
				h7.5l9.8-84.6H320.4z M197.7,250l-5.2-20.2h29.3l2,20.2H197.7z M254.9,250h-23.7l-2-20.2h25.6V250z M284,250h-21.7v-20.2h22.4
				L284,250z M314.6,250h-23.1l0.8-20.2h24.7L314.6,250z"/>
		</g>
	</g>
	<g>
		<g>
			<path class="st2" d="M329.2,195.1l-3,25.5h-28.6l1-26.4h-8.5l-1,26.4h-25.7v-26.2h-8.5v26.2h-29.8l-2.5-25.7h-8.5l2.5,25.7h-34.5
				l-6.8-25.4h-8.5l24.9,93.4h8.5l-7.9-29.7h28l2.9,29.7h8.5l-2.9-29.7h26v29.7h8.5v-29.7h24.2l-1.1,29.7h8.5l1.1-29.7h25.5
				l-3.5,29.7h8.5l11.1-93.5H329.2z M190.2,250.9l-5.9-22.3h33.1l2.2,22.3H190.2z M254.9,250.9h-26.8l-2.2-22.3h29V250.9z
				 M287.9,250.9h-24.5v-22.3h25.4L287.9,250.9z M322.5,250.9h-26.1l0.9-22.3h27.9L322.5,250.9z"/>
		</g>
	</g>
	<g>
		<g>
			<g>
				<polygon class="st0" points="175.4,195.2 166.9,195.2 172.4,215.7 180.9,215.7 				"/>
			</g>
		</g>
		<g>
			<g>
				<polygon class="st0" points="222.6,194.9 214.1,194.9 216.1,215.7 224.6,215.7 				"/>
			</g>
		</g>
		<g>
			<g>
				<path class="st0" d="M329.2,195.1l-2.5,20.6h6.5c0.7,0,1.4-0.1,2-0.3l2.4-20.3H329.2z"/>
			</g>
		</g>
		<g>
			<g>
				<rect x="254.9" y="194.4" class="st0" width="8.5" height="21.3"/>
			</g>
		</g>
		<g>
			<g>
				<polygon class="st0" points="290.1,194.2 289.3,215.7 297.7,215.7 298.6,194.2 				"/>
			</g>
		</g>
	</g>
	<g>
		<g>
			<path class="st2" d="M324.6,275.4H187.7c-4.4,0-7.9,3.5-7.9,7.9v3.6c0,4.4,3.5,7.9,7.9,7.9h136.8c4.4,0,7.9-3.5,7.9-7.9v-3.6
				C332.4,278.9,328.9,275.4,324.6,275.4z"/>
		</g>
	</g>
	<g>
		<g>
			<path class="st2" d="M333.2,185.5H168c-4.1,0-7.4,3.3-7.4,7.4v9.5c0,4.1,3.3,7.4,7.4,7.4h165.3c4.1,0,7.4-3.3,7.4-7.4v-9.5
				C340.6,188.8,337.3,185.5,333.2,185.5z"/>
		</g>
	</g>
</g>
<g>
	<path class="st3" d="M301.6,230.1c-1.6-1.9-4.4-3.1-7.7-3.1c-3.5,0-6.7,1.2-8.9,3.1l0.4-2.2l-1-0.3c-1.3-0.4-2.8-0.6-4.3-0.6
		c-2.5,0-5,0.8-6.9,2.1l0.6-1.9h-15.2l-0.2,0.6c-1.4-0.5-2.8-0.8-4.5-0.8c-3.1,0-6.5,1.2-8.3,3.6c-0.1-0.2-0.2-0.3-0.4-0.5
		c-1.6-1.9-4.4-3.1-7.7-3.1c-3.4,0-6.5,1.1-8.7,3l0.8-5.2l-1-0.3c-1.6-0.5-3.5-0.7-5.3-0.7c-6.7,0-12.7,4.2-13.8,9.6
		c-0.5,2.3,0.1,4.5,1.5,6.3c1.2,1.5,3,2.6,5.2,3.1h-6.6v8.5h33.7l0.1-0.1l0,0.1h4.1l0.5-0.9l-0.2,0.9h9.2l0.1-0.7
		c0.8,0.5,1.8,0.8,3.1,0.8c1.1,0,2.1-0.2,2.9-0.6l-0.1,0.5h12.8l0-0.1c0.6,0.1,1.2,0.2,1.8,0.2c0.4,0,0.7,0,1.1-0.1h4.9l0.4-0.8h0.3
		l0.1,0.8h15.1l0.8-4h-0.3l0.1-0.5h0.2l0.8-4h-0.4c0.3-0.3,0.6-0.7,0.7-1.2c0.1-0.5,0-1.1-0.4-1.5c-0.1-0.1-0.2-0.2-0.3-0.3
		c1.2-1.2,2-2.7,2.4-4.4C303.3,233.5,302.8,231.6,301.6,230.1L301.6,230.1z M292.8,247.1h-0.5l0.7-3.7c0.2,0,0.3,0,0.5-0.1
		L292.8,247.1z M282,235.1c0,0.2-0.1,0.5-0.1,0.7c-1,0.7-2,1-3,1c-0.7,0-1.3-0.2-1.6-0.6c-0.2-0.2-0.2-0.5-0.2-0.7
		c0.2-0.9,1.5-1.8,2.7-1.8c0.8,0,1.5,0.3,2.3,0.9C282.1,234.8,282.1,235,282,235.1L282,235.1z M283.1,242.9l-0.5,0.8l-0.4-0.2
		c-0.3-0.2-0.6-0.3-0.9-0.4c0.2-0.1,0.4-0.1,0.6-0.2l0.6-0.2l0.6-2.5c0.1,0.1,0.2,0.2,0.2,0.3c0.9,1,2.1,1.8,3.6,2.3L283.1,242.9
		L283.1,242.9z M288.1,243.2l-0.2,1l-0.3-1.2C287.8,243.2,287.9,243.2,288.1,243.2L288.1,243.2z M292.9,233.9c0.6,0,1.1,0.2,1.3,0.5
		c0.2,0.3,0.2,0.6,0.2,0.9c-0.2,1-1.2,1.7-2.5,1.7c-0.6,0-1.1-0.2-1.4-0.5c-0.2-0.2-0.2-0.5-0.1-0.8
		C290.6,234.8,291.5,233.9,292.9,233.9z M264.3,243.7c-0.2-0.1-0.4-0.2-0.6-0.3h0.6L264.3,243.7z M260.8,247.1
		c-0.1,0.1-0.2,0.1-0.4,0.1C260.5,247.2,260.6,247.1,260.8,247.1z M259.8,234l-0.8,2.5c0-0.7-0.3-1.3-0.6-1.8
		c-0.1-0.2-0.3-0.4-0.5-0.6L259.8,234z M238,235.2c-0.2,1-1.2,1.7-2.5,1.7c-0.6,0-1.1-0.2-1.4-0.5c-0.2-0.2-0.2-0.5-0.1-0.8
		c0.2-0.9,1.1-1.8,2.6-1.8c0.6,0,1.1,0.2,1.3,0.5C238,234.6,238,235,238,235.2L238,235.2z M246.7,243.3L246.7,243.3L246.7,243.3
		C246.7,243.3,246.7,243.3,246.7,243.3L246.7,243.3z M258,240l-0.9,2.9h-3.4C255.4,242.3,257,241.4,258,240z M258.3,243.3h0.2
		C258.5,243.4,258.4,243.4,258.3,243.3L258.3,243.3z M221.9,235.7c-1,0-1.8-0.3-2.2-0.8c-0.3-0.3-0.3-0.6-0.3-1
		c0.3-1.3,1.9-2.3,3.7-2.3c1.2,0,2.3,0.4,3.3,1.3c-0.3,0.5-0.5,1.1-0.7,1.7C224.4,235.3,223.2,235.7,221.9,235.7z M241.8,241.7
		l1.1,0.5c0.6,0.3,1.3,0.5,2,0.7h-2l-0.2,0.4l0-0.4h-3.5C240.1,242.6,241,242.2,241.8,241.7L241.8,241.7z M268.6,247.1l0.8-4.2h-3.9
		l2.7-9l0.8,0c-0.2,0.4-0.3,0.8-0.4,1.3c-0.4,2,0.1,3.9,1.3,5.4c0.8,1,1.9,1.7,3.3,2.2h-3.4l-0.8,4.2L268.6,247.1L268.6,247.1z
		 M225.5,242.6l0.6-0.2l0.5-2.2c0.1,0.1,0.2,0.2,0.2,0.3c0.9,1,2.1,1.8,3.6,2.3h-6.2C224.7,242.8,225.1,242.7,225.5,242.6z
		 M295.5,242.9c0.5-0.2,1-0.3,1.5-0.5c0.1,0.2,0.2,0.3,0.3,0.5c0,0,0.1,0.1,0.1,0.1H295.5z"/>
	<path class="st4" d="M241.5,244l0.2,3.7h0.1c0.1-0.4,0.3-0.8,0.4-1.1l1.3-2.6h2.1l0.3,3.7h0.1c0.1-0.4,0.2-0.7,0.4-1.1l1.2-2.6h2.8
		l-3.8,6.2h-2.4l-0.2-3.4H244c-0.1,0.3-0.2,0.6-0.3,0.9l-1.2,2.4h-2.3l-1.4-6.2H241.5z"/>
	<path class="st4" d="M250.2,244h2.6l-0.4,2.1h1.7l0.4-2.1h2.6l-1.2,6.2h-2.6l0.4-2.1h-1.7l-0.4,2.1h-2.6L250.2,244z"/>
	<path class="st4" d="M264.7,247.1c-0.4,2-2.4,3.2-4.7,3.2c-2.3,0-3.9-1.2-3.5-3.2c0.4-1.9,2.5-3.2,4.7-3.2
		C263.5,243.9,265.1,245.2,264.7,247.1L264.7,247.1z M259.2,247.2c-0.1,0.7,0.3,1.2,1.2,1.2c0.8,0,1.5-0.5,1.6-1.2
		c0.1-0.7-0.3-1.2-1.2-1.2C260,246,259.3,246.5,259.2,247.2z M265.3,244h2.7l-0.8,4.2h2.3l-0.4,2h-5L265.3,244z M275.8,248l0.1,0.1
		c0.4,0.3,1,0.6,1.6,0.6c0.3,0,0.7-0.1,0.8-0.4c0.1-0.3-0.3-0.3-0.5-0.3l-0.5-0.1c-1-0.2-1.8-0.7-1.6-1.6c0.3-1.5,2-2.3,3.7-2.3
		c0.8,0,1.6,0.2,2.3,0.5l-1,1.6c-0.4-0.3-0.9-0.5-1.5-0.5c-0.2,0-0.6,0.1-0.6,0.3c0,0.2,0.3,0.3,0.5,0.3l0.6,0.1
		c1.1,0.2,1.8,0.7,1.6,1.8c-0.3,1.5-2,2.2-3.6,2.2c-0.9,0-2-0.2-2.7-0.6L275.8,248L275.8,248z"/>
	<path class="st4" d="M285.1,248l-0.1-1.1c0-0.3,0-0.5,0-0.8h-0.1L284,248H285.1L285.1,248z M282.8,250.2h-2.9l3.8-6.2h3l1.5,6.2
		h-2.9l-0.1-0.8h-2L282.8,250.2L282.8,250.2z"/>
	<path class="st4" d="M289.1,244h2.7l-0.8,4.2h2.3l-0.4,2h-5L289.1,244z M294.5,244h5l-0.3,1.7h-2.3l-0.1,0.6h2.1l-0.3,1.6h-2.1
		l-0.1,0.6h2.4l-0.3,1.7h-5.1L294.5,244z"/>
	<g>
		<path class="st5" d="M257.9,232.9l3.4-0.1l-2.9,9.4h6.1l2.9-9.4l3.3,0.1l1.4-4.5h-12.9L257.9,232.9L257.9,232.9z M245.3,235.4
			c-0.9,4.4-5.5,7.1-10.7,7.1c-5.1,0-8.8-2.6-7.9-7.1c0.8-4.3,5.6-7.1,10.7-7.1C242.5,228.2,246.1,231,245.3,235.4L245.3,235.4z
			 M232.8,235.4c-0.3,1.6,0.8,2.6,2.6,2.6c1.9,0,3.4-1.1,3.7-2.6c0.3-1.5-0.7-2.7-2.6-2.7C234.5,232.7,233.1,234,232.8,235.4
			L232.8,235.4z"/>
		<path class="st5" d="M243.4,241.2c1.7,0.8,4.1,1.3,6.2,1.3c3.6,0,7.6-1.6,8.2-4.9c0.5-2.3-1.2-3.5-3.7-3.9l-1.3-0.3
			c-0.5-0.1-1.2-0.2-1.1-0.7c0.1-0.6,0.9-0.7,1.5-0.7c1.3,0,2.4,0.5,3.3,1l2.3-3.5c-1.5-0.8-3.2-1.2-5.1-1.2c-3.7,0-7.6,1.8-8.3,5.1
			c-0.4,2.2,1.4,3.3,3.7,3.7l1.2,0.2c0.5,0.1,1.3,0.1,1.2,0.8c-0.1,0.6-1.1,0.8-1.7,0.8c-1.4,0-2.6-0.6-3.6-1.3l-0.3-0.2
			L243.4,241.2z M284,228.8c-1.2-0.4-2.6-0.6-4-0.6c-4.9,0-9.4,3.2-10.2,7.2c-0.8,3.9,2.4,7,7.2,7c1.1,0,3.4-0.2,4.5-0.5l1.2-5.1
			c-1.1,0.8-2.3,1.3-3.8,1.3c-1.8,0-3.2-1.2-2.9-2.7c0.3-1.5,2-2.7,3.8-2.7c1.4,0,2.5,0.6,3.3,1.4L284,228.8L284,228.8z
			 M293.8,228.2c-5.1,0-9.8,2.8-10.7,7.1c-0.9,4.4,2.8,7.1,7.9,7.1c5.1,0,9.8-2.6,10.7-7.1C302.6,231,298.9,228.2,293.8,228.2z
			 M292.9,232.7c1.9,0,2.9,1.2,2.6,2.7c-0.3,1.6-1.8,2.6-3.7,2.6c-1.9,0-2.9-1.1-2.6-2.6C289.6,234,291,232.7,292.9,232.7
			L292.9,232.7z M228.2,225.7c-1.5-0.4-3.3-0.7-5-0.7c-6.1,0-11.7,3.9-12.7,8.7c-0.9,4.7,3,8.4,9,8.4c1.4,0,4.2-0.2,5.6-0.7l1.5-6.2
			c-1.4,0.9-2.9,1.5-4.7,1.5c-2.3,0-4-1.4-3.6-3.2c0.4-1.8,2.5-3.2,4.8-3.2c1.7,0,3.1,0.8,4.1,1.7L228.2,225.7L228.2,225.7z"/>
		<path class="st5" d="M298,241.5c0.1-0.5,0.6-0.9,1.2-0.9c0.6,0,1,0.4,0.9,0.9c-0.1,0.5-0.6,0.9-1.2,0.9
			C298.3,242.4,297.9,242,298,241.5z M299.8,241.5c0.1-0.4-0.2-0.6-0.7-0.6c-0.5,0-0.8,0.3-0.9,0.6c-0.1,0.4,0.2,0.6,0.7,0.6
			C299.4,242.2,299.7,241.9,299.8,241.5L299.8,241.5z M299.4,242h-0.3l-0.2-0.4h-0.2l-0.1,0.4h-0.2l0.2-0.9h0.5
			c0.2,0,0.4,0.1,0.3,0.3c0,0.2-0.2,0.2-0.3,0.2L299.4,242L299.4,242z M299.1,241.4c0.1,0,0.2,0,0.2-0.1c0-0.1-0.1-0.1-0.2-0.1h-0.2
			l0,0.2H299.1L299.1,241.4z"/>
	</g>
	<path class="st4" d="M211,250.2h28.6l0,0h0l-0.4-1.6H211V250.2z M211,248H239l-0.4-1.6H211V248z M211,245.7h27.5l-0.1-0.6l-0.3-1.1
		H211L211,245.7z M270.8,244h5l-0.3,1.7h-2.3l-0.1,0.6h2.1l-0.3,1.6h-2.1l-0.1,0.6h2.4l-0.3,1.7h-5.1L270.8,244z"/>
</g>
</svg>
