<?xml version="1.0" encoding="UTF-8" standalone="no"?>
<!DOCTYPE svg PUBLIC "-//W3C//DTD SVG 1.1//EN" "http://www.w3.org/Graphics/SVG/1.1/DTD/svg11.dtd">
<svg width="100%" height="100%" viewBox="0 0 22 32" version="1.1" xmlns="http://www.w3.org/2000/svg" xmlns:xlink="http://www.w3.org/1999/xlink" xml:space="preserve" xmlns:serif="http://www.serif.com/" style="fill-rule:evenodd;clip-rule:evenodd;stroke-linejoin:round;stroke-miterlimit:1.41421;">
    <g transform="matrix(1,0,0,1,-57,-201)">
        <path d="M72.243,201.326C72.243,201.326 78.366,218.11 78.453,218.381L78.453,218.382L78.453,218.382C78.783,219.416 78.962,220.517 78.962,221.66C78.962,227.605 74.135,232.432 68.19,232.432C62.245,232.432 57.418,227.605 57.418,221.66C57.418,215.715 62.245,210.888 68.19,210.888C68.966,210.888 69.723,210.971 70.453,211.127L67.523,203.082L72.243,201.326ZM68.19,215.93C71.353,215.93 73.92,218.498 73.92,221.66C73.92,224.823 71.353,227.39 68.19,227.39C65.028,227.39 62.46,224.823 62.46,221.66C62.46,218.498 65.028,215.93 68.19,215.93Z" style="fill:white;"/>
    </g>
</svg>
