<?xml version="1.0" encoding="utf-8"?>
<!-- Generator: Adobe Illustrator 21.0.2, SVG Export Plug-In . SVG Version: 6.00 Build 0)  -->
<svg version="1.1" id="Layer_1" xmlns="http://www.w3.org/2000/svg" xmlns:xlink="http://www.w3.org/1999/xlink" x="0px" y="0px"
	 viewBox="0 0 1000 1000" style="enable-background:new 0 0 1000 1000;" xml:space="preserve">
<style type="text/css">
	.st0{fill:url(#SVGID_1_);}
	.st1{fill:#FFFFFF;}
</style>
<g>
	<linearGradient id="SVGID_1_" gradientUnits="userSpaceOnUse" x1="507" y1="762" x2="507" y2="239">
		<stop  offset="0" style="stop-color:#BA62FA"/>
		<stop  offset="1" style="stop-color:#E985D5"/>
	</linearGradient>
	<path class="st0" d="M901,762H113c-16.5,0-30-13.5-30-30V269c0-16.5,13.5-30,30-30h788c16.5,0,30,13.5,30,30v463
		C931,748.5,917.5,762,901,762z"/>
	<g>
		<path class="st1" d="M629,554c-7.1,15.7-10.4,22.6-19.5,36.5c-12.7,19.3-30.6,43.4-52.7,43.6c-19.7,0.2-24.8-12.8-51.5-12.7
			c-26.7,0.1-32.3,12.9-52,12.7c-22.2-0.2-39.1-21.9-51.8-41.2c-35.5-54-39.2-117.4-17.3-151.1c15.5-23.9,40.1-38,63.2-38
			c23.5,0,38.3,12.9,57.7,12.9c18.8,0,30.3-12.9,57.5-12.9c20.5,0,42.3,11.2,57.8,30.5C569.4,462.1,577.7,534.6,629,554L629,554z"/>
		<path class="st1" d="M541.8,382.2c9.9-12.7,17.4-30.5,14.6-48.8c-16.1,1.1-35,11.4-46,24.7c-10,12.1-18.2,30.1-15,47.6
			C513.1,406.3,531.3,395.8,541.8,382.2z"/>
	</g>
	<g>
		<path class="st1" d="M152.5,657.8c0,3.5-2.6,6.2-6.7,6.2c-3.9,0-6.6-2.8-6.5-6.2c-0.1-3.6,2.5-6.3,6.6-6.3
			C149.8,651.5,152.4,654.2,152.5,657.8z M139.6,709.1v-40.1h12.5v40.1H139.6z M173.2,664.3h-14.9v-10.5h42.5v10.5h-15.1v44.8h-12.6
			L173.2,664.3z M240.5,696.2c0,5.3,0.2,9.5,0.3,12.9H230l-0.6-5.7h-0.2c-1.6,2.5-5.3,6.6-12.6,6.6c-8.1,0-14.1-5.1-14.1-17.5V669
			H215v21.6c0,5.8,1.9,9.4,6.2,9.4c3.5,0,5.4-2.4,6.2-4.3c0.3-0.7,0.4-1.7,0.4-2.7V669h12.6L240.5,696.2L240.5,696.2L240.5,696.2z
			 M250.5,681.8c0-5-0.2-9.3-0.3-12.8H261l0.6,5.5h0.2c1.6-2.5,5.7-6.4,12.4-6.4c8.2,0,14.4,5.4,14.4,17.2v23.8h-12.5v-22.2
			c0-5.2-1.8-8.7-6.3-8.7c-3.5,0-5.5,2.4-6.3,4.7c-0.3,0.8-0.5,2-0.5,3.1v23.1h-12.5L250.5,681.8L250.5,681.8L250.5,681.8z
			 M308.2,693c0.4,5.2,5.5,7.6,11.3,7.6c4.3,0,7.7-0.6,11.1-1.6l1.6,8.5c-4.1,1.6-9.1,2.5-14.5,2.5c-13.6,0-21.4-8-21.4-20.5
			c0-10.2,6.3-21.4,20.3-21.4c13,0,17.9,10.1,17.9,20c0,2.1-0.2,4-0.4,4.9L308.2,693L308.2,693z M322.9,684.5c0-3-1.3-8.1-7.1-8.1
			c-5.3,0-7.4,4.8-7.7,8.1H322.9z M341.8,698.2c2.3,1.4,7.1,3,10.8,3c3.8,0,5.3-1.3,5.3-3.4s-1.2-3-5.9-4.6
			c-8.3-2.8-11.5-7.3-11.4-12c0-7.6,6.4-13.2,16.3-13.2c4.7,0,8.9,1.1,11.3,2.3l-2.2,8.6c-1.8-1-5.3-2.3-8.7-2.3
			c-3,0-4.8,1.2-4.8,3.3c0,1.9,1.6,2.9,6.5,4.6c7.6,2.6,10.8,6.5,10.9,12.4c0,7.5-5.9,13.1-17.4,13.1c-5.2,0-9.9-1.2-13-2.9
			L341.8,698.2L341.8,698.2z"/>
	</g>
</g>
</svg>
